# xmcd
#
# Track frame offsets: 
#        150
#        20670
#        44081
#
# Disc length: 857 seconds
#
# Revision: 0
# Processed by: cddbd v1.5.2PL0 Copyright (c) Steve Scherf et al.
# Submitted via: ExactAudioCopyFreeDBPlugin 1.0
#
DISCID=24035703
DTITLE=Stardust Revue - Crying
DYEAR=2012
DGENRE=JPop
TTITLE0=Crying
TTITLE1=恋人のままで -Autumn Love-
TTITLE2=Crying(Back Track)
EXTD=
EXTT0=
EXTT1=
EXTT2=
PLAYORDER=
